<?xml version="1.0" standalone="no"?>
<!DOCTYPE svg PUBLIC "-//W3C//DTD SVG 20010904//EN"
 "http://www.w3.org/TR/2001/REC-SVG-20010904/DTD/svg10.dtd">
<svg version="1.0" xmlns="http://www.w3.org/2000/svg"
 width="24.000000pt" height="24.000000pt" viewBox="0 0 24.000000 24.000000"
 preserveAspectRatio="xMidYMid meet">

<g transform="translate(0.000000,24.000000) scale(0.100000,-0.100000)"
fill="#000000" stroke="none">
<path d="M49 163 c-13 -15 -12 -15 8 -3 18 12 24 12 40 -1 16 -13 17 -13 4 4
-17 21 -35 22 -52 0z"/>
<path d="M139 163 c-13 -15 -12 -15 8 -3 18 12 24 12 40 -1 16 -13 17 -13 4 4
-17 21 -35 22 -52 0z"/>
<path d="M191 110 c-29 -25 -106 -27 -141 -4 l-25 16 24 -22 c14 -12 30 -31
36 -43 14 -29 56 -29 70 -1 6 11 24 33 40 47 35 30 32 36 -4 7z"/>
</g>
</svg>
